<svg xmlns="http://www.w3.org/2000/svg" width="180" height="54"  viewBox="0 0 846 250" fill-rule="evenodd"><circle fill="#70cba5" cx="487" cy="125" r="125"/><g fill-rule="nonzero"><path d="M.1 68.054h68.684v10.472H15.048v32.648h48.664v10.472H15.048V168H.1V68.054zM116.996 169.54c-6.57 0-11.5-.23-14.784-.693s-6.57-1.463-9.856-3.003c-3.388-1.54-5.852-4.03-7.392-7.47s-2.3-8.085-2.3-13.937v-25.872c0-4.62.565-8.675 1.694-12.166s2.618-6.21 4.466-8.162c1.54-1.745 3.876-3.106 7.007-4.08a47.04 47.04 0 0 1 9.625-1.925c3.696-.205 7.546-.308 11.55-.308 5.34 0 9.368.128 12.09.385s5.62.796 8.7 1.617c3.183.924 5.647 2.3 7.392 4.158s3.234 4.517 4.466 8.008c1.13 3.593 1.694 7.75 1.694 12.474v25.872c0 8.727-2.002 15.092-6.006 19.096-1.643 1.643-4.004 2.926-7.084 3.85s-6.263 1.54-9.548 1.848c-3.9.205-7.803.308-11.704.308zm0-9.086c4.312 0 7.443-.103 9.394-.308s3.85-.77 5.698-1.694c1.848-.82 3.157-2.182 3.927-4.08s1.155-4.543 1.155-7.93v-30.184c0-4.62-.565-7.982-1.694-10.087s-3.054-3.49-5.775-4.158-6.956-1-12.705-1-9.984.334-12.705 1-4.646 2.053-5.775 4.158-1.694 5.467-1.694 10.087v30.184c0 3.388.385 6.032 1.155 7.93s2.08 3.26 3.927 4.08c1.848.924 3.747 1.49 5.698 1.694s5.082.308 9.394.308zm55.902-67h13.1v12.166c0-2.36 1.027-4.594 3.08-6.7s4.67-3.8 7.854-5.082 6.314-1.925 9.394-1.925h6.776v11.858h-7.7c-6.57 0-11.32.847-14.245 2.54s-4.39 4.748-4.39 9.163V168h-13.86V93.464zm54.054 0h13.86v9.086c1.437-7.084 9.805-10.626 25.102-10.626 12.423 0 20.174 3.388 23.254 10.164.924-3.285 3.722-5.8 8.393-7.546s10.395-2.618 17.17-2.618c9.24 0 15.76 1.72 19.558 5.16s5.698 8.855 5.698 16.247V168h-13.86v-53.746c0-1.95-.154-3.542-.462-4.774s-.924-2.464-1.848-3.696c-2.053-2.567-6.622-3.85-13.706-3.85-5.44 0-9.497.36-12.166 1.078s-4.492 1.95-5.467 3.696-1.463 4.26-1.463 7.546V168h-13.86v-53.746c0-1.95-.154-3.542-.462-4.774s-.924-2.464-1.848-3.696c-2.053-2.567-6.57-3.85-13.552-3.85-5.647 0-9.907.36-12.782 1.078s-4.877 1.925-6.006 3.62-1.694 4.235-1.694 7.623V168h-13.86V93.464z" fill="currentColor"/><path fill="#fff" d="M499.14 84.36h-78.12V70.7h95.76v13.65L464.7 207h-20.16z"/><path d="M636.32 93.464h13.706v8.008h.154c1.13-6.365 9.6-9.548 25.4-9.548 9.445 0 16.58 1.976 21.406 5.93s7.238 9.01 7.238 15.17v30.646c0 4.415-.642 8.265-1.925 11.55s-2.952 5.852-5.005 7.7c-1.848 1.745-4.39 3.13-7.623 4.158s-6.442 1.694-9.625 2.002c-2.875.308-6.365.462-10.472.462-4.517 0-8.65-.54-12.397-1.617s-6.083-2.644-7.007-4.697v36.806h-13.86V93.464zm33.572 66.682c5.34 0 9.42-.385 12.243-1.155s4.85-2.182 6.083-4.235 1.848-5.185 1.848-9.394V117.95c0-4.62-.616-8.06-1.848-10.318s-3.26-3.773-6.083-4.543-6.956-1.155-12.397-1.155-9.497.385-12.166 1.155-4.57 2.26-5.698 4.466-1.694 5.672-1.694 10.395v27.412c0 4.21.6 7.34 1.77 9.394s3.157 3.465 5.93 4.235 6.776 1.155 12.012 1.155zm55.594-66.682h13.1v12.166c0-2.36 1.027-4.594 3.08-6.7s4.67-3.8 7.854-5.082 6.314-1.925 9.394-1.925h6.776v11.858h-7.7c-6.57 0-11.32.847-14.245 2.54s-4.39 4.748-4.39 9.163V168h-13.86V93.464zM811.1 169.54c-6.57 0-11.5-.23-14.784-.693s-6.57-1.463-9.856-3.003c-3.388-1.54-5.852-4.03-7.392-7.47s-2.3-8.085-2.3-13.937v-25.872c0-4.62.565-8.675 1.694-12.166s2.618-6.21 4.466-8.162c1.54-1.745 3.876-3.106 7.007-4.08a47.04 47.04 0 0 1 9.625-1.925c3.696-.205 7.546-.308 11.55-.308 5.34 0 9.368.128 12.09.385s5.62.796 8.7 1.617c3.183.924 5.647 2.3 7.392 4.158s3.234 4.517 4.466 8.008c1.13 3.593 1.694 7.75 1.694 12.474v25.872c0 8.727-2.002 15.092-6.006 19.096-1.643 1.643-4.004 2.926-7.084 3.85s-6.263 1.54-9.548 1.848c-3.9.205-7.803.308-11.704.308zm0-9.086c4.312 0 7.443-.103 9.394-.308s3.85-.77 5.698-1.694c1.848-.82 3.157-2.182 3.927-4.08s1.155-4.543 1.155-7.93v-30.184c0-4.62-.565-7.982-1.694-10.087s-3.054-3.49-5.775-4.158-6.956-1-12.705-1-9.984.334-12.705 1-4.646 2.053-5.775 4.158-1.694 5.467-1.694 10.087v30.184c0 3.388.385 6.032 1.155 7.93s2.08 3.26 3.927 4.08c1.848.924 3.747 1.49 5.698 1.694s5.082.308 9.394.308z" fill="currentColor"/></g></svg>